<svg fill="none" xmlns="http://www.w3.org/2000/svg" viewBox="0 0 25 25">
  <g clip-path="url(#M0oqRI5MuwCqa)">
    <path d="M22.048 17.202c-.782-.469-2.407-1.446-2.407-3.986 0-2.144 1.435-3.226 2.206-3.807l.016-.013a.732.732 0 00.168-.99c-1.722-2.585-4.679-2.66-5.254-2.65h-.003a5.84 5.84 0 00-1.128.118 5.39 5.39 0 00.383-.336c1.232-1.192 1.909-2.95 1.857-4.826A.732.732 0 0017.154 0C15.82 0 14.306.796 13.2 2.078c-1.115 1.291-1.636 2.838-1.428 4.244a.727.727 0 00.126.314c-.195-.065-.401-.141-.605-.216-.775-.286-1.654-.61-2.477-.61-.017 0-1.69.013-3.36 1.05-1.462.909-3.204 2.799-3.204 6.65 0 2.002.782 4.805 1.993 7.142.836 1.615 2.572 4.325 4.802 4.337h.024c1.626 0 2.973-.96 3.889-.96 1.565 0 2.121.971 3.814.971 1.517 0 2.987-1.152 4.37-3.424a19.72 19.72 0 001.143-2.206c.462-1.04.462-1.178.462-1.28 0-.467-.357-.681-.701-.888zm-7.74-14.168c.601-.696 1.358-1.212 2.075-1.44-.137 1.137-.617 2.161-1.372 2.891-.53.512-1.164.845-1.81.96.07-.804.454-1.654 1.107-2.41zm5.514 17.896c-1.045 1.68-2.128 2.606-3.048 2.606-1.267 0-1.859-.971-3.814-.971-1.32 0-2.578.967-3.905.96-1.034-.006-2.38-1.365-3.51-3.546-1.111-2.144-1.83-4.684-1.83-6.47 0-2.528.832-4.337 2.47-5.378 1.275-.81 2.58-.855 2.635-.856 1.143.003 2.73 1.014 3.886 1.014 1.041 0 2.435-1.068 4.073-1.068h.027c.397-.008 2.273.037 3.59 1.467-.93.784-2.22 2.194-2.22 4.528 0 3.17 2.005 4.561 2.952 5.141a18.134 18.134 0 01-1.306 2.573z" fill="#16DBCC"/>
  </g>
  <defs>
    <clipPath id="M0oqRI5MuwCqa">
      <path fill="#fff" d="M0 0h25v25H0z"/>
    </clipPath>
  </defs>
</svg>
