<svg fill="none" xmlns="http://www.w3.org/2000/svg" viewBox="0 0 32 32">
  <circle cx="16" cy="16" r="16" fill="#F2F2F2"/>
  <path d="M13.177 23v-.882h.882v-.883H9.647A2.647 2.647 0 017 18.588v-7.94A2.647 2.647 0 019.647 8h13.235a2.647 2.647 0 012.647 2.647v7.941a2.647 2.647 0 01-2.647 2.647h-4.411v.883h.882V23h-6.177zm1.764-1.765v.883h2.647v-.883h-2.647zM9.647 8.882a1.765 1.765 0 00-1.765 1.765v7.941a1.765 1.765 0 001.765 1.765h13.235a1.765 1.765 0 001.765-1.765v-7.94a1.765 1.765 0 00-1.765-1.766H9.647z" fill="#7C6A46"/>
</svg>
