<svg fill="none" xmlns="http://www.w3.org/2000/svg" viewBox="0 0 32 32">
  <circle cx="16" cy="16" r="16" fill="#F2F2F2"/>
  <path d="M10.461 22.423a.577.577 0 11-1.153 0 .577.577 0 011.153 0zm1.731-2.884a.577.577 0 100 1.153.577.577 0 000-1.154zm-4.615 0a.577.577 0 100 1.153.577.577 0 000-1.154zm2.308-2.308a.577.577 0 100 1.153.577.577 0 000-1.153zm14.423-8.943a.288.288 0 01-.289.289H21.95c-.076 0-.15.03-.203.084l-2.074 2.074-1.577 9.236a.866.866 0 01-1.466.468L9.563 13.37a.866.866 0 01.466-1.467l9.23-1.577 2.075-2.074A.86.86 0 0121.95 8h2.07a.289.289 0 01.288.288zm-5.257 2.66l-8.923 1.523a.288.288 0 00-.158.49l7.067 7.066a.29.29 0 00.489-.156l1.525-8.922z" fill="#7C6A46"/>
</svg>
