<svg fill="none" xmlns="http://www.w3.org/2000/svg" viewBox="0 0 30 30">
  <g clip-path="url(#69mT6UYu2Dwma)" fill="#FFBB38">
    <path d="M9.99 5.625h10.02l2.162-1.73a2.161 2.161 0 00.7-2.431A2.158 2.158 0 0020.813 0H9.188a2.16 2.16 0 00-2.06 1.464 2.16 2.16 0 00.7 2.43L9.99 5.625zM20.181 7.5H9.82c-3.415 3.351-6.07 9.231-6.07 14.063C3.75 25.76 5.972 30 10.938 30h8.437c4.241 0 6.875-3.234 6.875-8.438 0-4.83-2.655-10.71-6.069-14.062zm-5.656 10.313h.95a2.653 2.653 0 01.463 5.265v.983a.938.938 0 01-1.876 0v-.936h-1.25a.938.938 0 010-1.875h2.663a.776.776 0 00.775-.775.778.778 0 00-.775-.788h-.95a2.653 2.653 0 01-.463-5.265v-.985a.938.938 0 011.876 0v.938h1.25a.938.938 0 010 1.875h-2.663a.776.776 0 00-.775.775c0 .44.348.788.775.788z"/>
  </g>
  <defs>
    <clipPath id="69mT6UYu2Dwma">
      <path fill="#fff" d="M0 0h30v30H0z"/>
    </clipPath>
  </defs>
</svg>
