<svg fill="none" xmlns="http://www.w3.org/2000/svg" viewBox="0 0 27 27">
  <g clip-path="url(#nwJQAE-DAdLDa)" fill="#16DBCC">
    <path d="M25.372 14.097a.791.791 0 00-.88.692c-.65 5.447-5.289 9.554-10.79 9.554A10.869 10.869 0 013.226 16.39l.947.52a.79.79 0 10.761-1.387L2.507 14.19a.791.791 0 00-1.074.312L.098 16.925A.791.791 0 00.41 18c.396.184.847.094 1.075-.312l.31-.561a12.454 12.454 0 0011.908 8.798c6.302 0 11.616-4.707 12.361-10.949a.79.79 0 00-.691-.879zm1.149-6.287a.791.791 0 00-1.039.413l-.25.578a12.5 12.5 0 00-3.638-4.928 12.479 12.479 0 00-7.892-2.818c-2.873 0-5.675 1-7.892 2.818a12.471 12.471 0 00-4.29 7.04.791.791 0 001.548.328 10.885 10.885 0 013.745-6.145 10.894 10.894 0 016.889-2.459c2.508 0 4.955.873 6.89 2.459a10.915 10.915 0 013.29 4.59l-1.001-.43a.791.791 0 00-.625 1.453l2.544 1.095c.433.179.855-.004 1.039-.414l1.096-2.54a.79.79 0 00-.414-1.04z"/>
    <path d="M18.577 7.671a1.9 1.9 0 00.099-1.461 1.916 1.916 0 00-3.716.41 4.976 4.976 0 00-1.835.175 4.971 4.971 0 00-2.869 2.181L8.12 12.455a1.734 1.734 0 00-.862.065c-.442.15-.799.461-1.005.878l-.141.284A1.746 1.746 0 006.9 16.02l4.624 2.29c-.456.948-.252 2.012.93 2.607 1.036.425 2.189.008 2.637-.838l.489.242a1.736 1.736 0 001.331.09c.441-.15.798-.461 1.005-.879l.14-.284c.208-.417.24-.89.09-1.331a1.736 1.736 0 00-.47-.726l1.474-3.807a4.98 4.98 0 00-.975-5.17c.163-.152.3-.335.402-.542zm-1.716-1.184a.332.332 0 110 .664.332.332 0 010-.664zM13.47 19.52a.407.407 0 01-.524-.505l.723.358a.407.407 0 01-.2.146zm4.205-6.708l-1.606 4.146a1.056 1.056 0 00.497 1.37.16.16 0 01.073.217l-.14.284a.163.163 0 01-.217.073l-8.68-4.3a.162.162 0 01-.073-.217l.141-.284c.038-.07.112-.12.217-.073.252.125.538.144.805.054.252-.085.458-.258.586-.49l2.326-3.788a3.394 3.394 0 011.959-1.49 3.393 3.393 0 012.45.222 3.394 3.394 0 011.66 1.816c.309.793.31 1.667.002 2.46z"/>
  </g>
  <defs>
    <clipPath id="nwJQAE-DAdLDa">
      <path fill="#fff" d="M0 0h27v27H0z"/>
    </clipPath>
  </defs>
</svg>
