<svg fill="none" xmlns="http://www.w3.org/2000/svg" viewBox="0 0 25 25">
  <g clip-path="url(#XSsZBpZAvLTYa)">
    <path d="M22.698 9.414h-.53c-.173-.54-.39-1.064-.65-1.567l.375-.376a2.3 2.3 0 000-3.255l-1.108-1.11a2.301 2.301 0 00-3.256 0l-.376.377a10.105 10.105 0 00-1.567-.65V2.3A2.304 2.304 0 0013.284 0h-1.569a2.304 2.304 0 00-2.3 2.301v.531c-.54.173-1.065.39-1.568.65l-.376-.375a2.301 2.301 0 00-3.255 0l-1.11 1.109a2.301 2.301 0 000 3.255l.377.376c-.26.503-.478 1.028-.65 1.567H2.3A2.304 2.304 0 000 11.716v1.569a2.304 2.304 0 002.301 2.3h.531c.173.54.39 1.065.65 1.568l-.375.376a2.301 2.301 0 000 3.255l1.109 1.11a2.301 2.301 0 003.255 0l.376-.377c.503.26 1.028.478 1.567.65v.532A2.304 2.304 0 0011.716 25h1.569a2.304 2.304 0 002.301-2.301v-.531c.54-.173 1.064-.39 1.567-.65l.376.375a2.3 2.3 0 003.255 0l1.11-1.109a2.302 2.302 0 000-3.255l-.377-.376c.26-.503.478-1.028.65-1.567h.532A2.304 2.304 0 0025 13.284v-1.569a2.304 2.304 0 00-2.302-2.3zM12.5 17.94c-3 0-5.44-2.44-5.44-5.439 0-3 2.44-5.44 5.44-5.44 3 0 5.44 2.44 5.44 5.44 0 3-2.44 5.44-5.44 5.44z" fill="#B1B1B1"/>
  </g>
  <defs>
    <clipPath id="XSsZBpZAvLTYa">
      <path fill="#fff" d="M0 0h25v25H0z"/>
    </clipPath>
  </defs>
</svg>
