<svg fill="none" xmlns="http://www.w3.org/2000/svg" viewBox="0 0 549 179">
  <path d="M39.708 106.89C21.093 114.908 13.456 140.631 2 157v22h547V43.751c-4.773 0-22.911-15.534-39.617-8.519-16.706 7.016-21.479 89.196-50.118 92.203-28.638 3.007-42.003-80.677-76.847-77.67-34.844 3.006-26.252 80.419-58.709 83.182-32.458 2.763-59.664-136.3-88.303-130.787-28.639 5.512-29.594 67.648-45.822 77.17-16.229 9.52-31.026-13.53-47.731-9.02-16.706 4.51-23.389 54.118-40.572 56.123-17.183 2.004-42.958-27.56-61.573-19.543z" fill="url(#hmLe_BX0Icrka)" fill-opacity=".5"/>
  <path d="M2 157c11.456-16.369 19.093-42.092 37.708-50.11s44.39 21.547 61.573 19.543c17.183-2.005 23.866-51.614 40.572-56.124 16.705-4.51 31.502 18.541 47.731 9.02 16.228-9.52 17.183-71.657 45.822-77.17 28.638-5.511 55.845 133.551 88.303 130.788 32.457-2.763 23.865-80.176 58.709-83.183 34.844-3.006 48.209 80.678 76.847 77.671 28.639-3.007 33.412-85.187 50.118-92.203 16.706-7.015 34.844 8.52 39.617 8.52" stroke="#1814F3" stroke-width="3"/>
  <defs>
    <linearGradient id="hmLe_BX0Icrka" x1="275.5" y1="2" x2="275.5" y2="179" gradientUnits="userSpaceOnUse">
      <stop stop-color="#2D60FF" stop-opacity=".5"/>
      <stop offset="1" stop-color="#2D60FF" stop-opacity="0"/>
    </linearGradient>
  </defs>
</svg>
